<svg xmlns="http://www.w3.org/2000/svg" width="1200" height="630" viewBox="0 0 1200 630">
<defs><linearGradient id="bg" x1="0" y1="0" x2="1" y2="1"><stop stop-color="#08162e"/><stop offset=".62" stop-color="#0b57d0"/><stop offset="1" stop-color="#7656ff"/></linearGradient><filter id="s"><feDropShadow dx="0" dy="24" stdDeviation="22" flood-opacity=".3"/></filter></defs>
<rect width="1200" height="630" fill="url(#bg)"/><circle cx="150" cy="80" r="240" fill="#6f86ff" opacity=".22"/><circle cx="1050" cy="590" r="270" fill="#a56fff" opacity=".18"/>
<g transform="translate(830 170) scale(2.15)" filter="url(#s)"><rect width="128" height="128" rx="34" fill="#fff"/><rect x="4" y="4" width="120" height="120" rx="31" fill="url(#bg)"/><path d="M31 36h66v44H31z" fill="none" stroke="#fff" stroke-width="8" stroke-linejoin="round"/><path d="M49 96h30M64 80v16" stroke="#fff" stroke-width="8" stroke-linecap="round"/><path d="M45 57l10 10 25-25" fill="none" stroke="#a8ffd9" stroke-width="9" stroke-linecap="round" stroke-linejoin="round"/></g>
<text x="88" y="205" fill="#bfe9ff" font-family="Arial, sans-serif" font-size="30" font-weight="700">SET UP WINDOWS WITH CONFIDENCE</text>
<text x="88" y="300" fill="#fff" font-family="Arial, sans-serif" font-size="70" font-weight="900">POST-INSTALLATION</text>
<text x="88" y="380" fill="#fff" font-family="Arial, sans-serif" font-size="70" font-weight="900">GUIDE</text>
<text x="88" y="452" fill="#e8efff" font-family="Arial, sans-serif" font-size="28">Packages · Progress · Comparisons · Favorites · WinGet</text>
<g font-family="Arial, sans-serif" font-size="20" fill="#fff"><rect x="88" y="505" width="145" height="52" rx="26" fill="#fff" opacity=".14"/><text x="160" y="538" text-anchor="middle">Everyday</text><rect x="248" y="505" width="110" height="52" rx="26" fill="#fff" opacity=".14"/><text x="303" y="538" text-anchor="middle">Gaming</text><rect x="373" y="505" width="140" height="52" rx="26" fill="#fff" opacity=".14"/><text x="443" y="538" text-anchor="middle">Coding</text></g>
</svg>
